<svg width="110" height="87" viewBox="0 0 110 87" fill="none" xmlns="http://www.w3.org/2000/svg">
<path d="M30.1254 86.8352C30.1529 86.8489 30.1804 86.8489 30.2078 86.8627C30.3177 86.9176 30.4412 86.9451 30.5648 86.9588C30.6197 86.9588 30.6609 87 30.7021 87C30.7433 87 30.7845 86.9725 30.8257 86.9725C30.963 86.9588 31.0866 86.9313 31.2102 86.8627C31.2376 86.8489 31.2651 86.8627 31.2788 86.8489L60.8276 69.7541C61.1846 69.5481 61.4043 69.1636 61.4043 68.7517V67.4747C61.4043 66.8294 60.8825 66.3076 60.2371 66.3076C59.5918 66.3076 59.07 66.8294 59.07 67.4747V68.0789L31.8692 83.8144V52.3708L40.0254 47.6612C40.5883 47.3454 40.7668 46.6314 40.451 46.0684C40.1352 45.5054 39.4212 45.3132 38.8582 45.6427L30.6884 50.3524L3.48763 34.6581L30.7021 18.95L42.4283 25.7056C42.9912 26.0214 43.6915 25.8292 44.021 25.2799C44.3368 24.717 44.1446 24.0167 43.5954 23.6871L31.2926 16.5883C30.9356 16.3823 30.4824 16.3823 30.1254 16.5883L0.576695 33.6557C0.562964 33.6695 0.549234 33.6832 0.535503 33.6969C0.384464 33.793 0.247154 33.9166 0.151039 34.0814V34.0951C0.0549228 34.2599 0.0137311 34.4384 0.0137311 34.6169C0.0137311 34.6306 0 34.6581 0 34.6718V68.7654C0 69.1774 0.219693 69.5618 0.576695 69.7678L30.1254 86.8352ZM2.32051 36.6628L29.535 52.3708V83.8007L2.32051 68.0789V36.6628Z" fill="black"/>
<path d="M23.3286 34.6581C23.3286 37.3219 26.5279 39.409 30.606 39.409C34.684 39.409 37.8833 37.3219 37.8833 34.6581C37.8833 31.9943 34.684 29.9072 30.606 29.9072C26.5279 29.9072 23.3286 31.9943 23.3286 34.6581ZM35.5628 34.6581C35.5628 35.8115 33.4482 37.0885 30.606 37.0885C27.7774 37.0885 25.6491 35.8115 25.6491 34.6581C25.6491 33.5047 27.7637 32.2277 30.606 32.2277C33.4482 32.2277 35.5628 33.5047 35.5628 34.6581Z" fill="black"/>
<path d="M8.51307 43.6792C6.50837 43.6792 4.92932 45.9997 4.92932 48.9656C4.92932 51.9314 6.50837 54.2519 8.51307 54.2519C10.5178 54.2519 12.0968 51.9314 12.0968 48.9656C12.0968 45.9997 10.5178 43.6792 8.51307 43.6792ZM8.51307 51.9314C8.07368 51.9314 7.26356 50.8055 7.26356 48.9793C7.26356 47.1531 8.07368 46.0134 8.51307 46.0134C8.95245 46.0134 9.7763 47.1394 9.7763 48.9793C9.7763 50.8192 8.95245 51.9314 8.51307 51.9314Z" fill="black"/>
<path d="M8.51307 57.9321C6.50837 57.9321 4.92932 60.2526 4.92932 63.2185C4.92932 66.1844 6.50837 68.5049 8.51307 68.5049C10.5178 68.5049 12.0968 66.1844 12.0968 63.2185C12.0968 60.2526 10.5178 57.9321 8.51307 57.9321ZM8.51307 66.1706C8.07368 66.1706 7.26356 65.0447 7.26356 63.2185C7.26356 61.3923 8.07368 60.2526 8.51307 60.2526C8.95245 60.2526 9.7763 61.3786 9.7763 63.2185C9.7763 65.0584 8.95245 66.1706 8.51307 66.1706Z" fill="black"/>
<path d="M23.2052 51.9316C21.2005 51.9316 19.6215 54.2522 19.6215 57.218C19.6215 60.1839 21.2005 62.5044 23.2052 62.5044C25.2099 62.5044 26.7889 60.1839 26.7889 57.218C26.7889 54.2522 25.2236 51.9316 23.2052 51.9316ZM23.2052 60.1701C22.7658 60.1701 21.942 59.0442 21.942 57.2043C21.942 55.3643 22.7521 54.2384 23.2052 54.2384C23.6583 54.2384 24.4684 55.3643 24.4684 57.2043C24.4684 59.0442 23.6446 60.1701 23.2052 60.1701Z" fill="black"/>
<path d="M23.2052 66.1707C21.2005 66.1707 19.6215 68.4912 19.6215 71.457C19.6215 74.4229 21.2005 76.7434 23.2052 76.7434C25.2099 76.7434 26.7889 74.4229 26.7889 71.457C26.7889 68.4912 25.2236 66.1707 23.2052 66.1707ZM23.2052 74.4229C22.7658 74.4229 21.942 73.297 21.942 71.457C21.942 69.6171 22.7521 68.4912 23.2052 68.4912C23.6583 68.4912 24.4684 69.6171 24.4684 71.457C24.4684 73.297 23.6446 74.4229 23.2052 74.4229Z" fill="black"/>
<path d="M38.1853 66.1707C36.1806 66.1707 34.6016 68.4912 34.6016 71.457C34.6016 74.4229 36.1806 76.7434 38.1853 76.7434C40.19 76.7434 41.7691 74.4229 41.7691 71.457C41.7691 68.4912 40.19 66.1707 38.1853 66.1707ZM38.1853 74.4229C37.7459 74.4229 36.9358 73.297 36.9358 71.457C36.9358 69.6171 37.7459 68.4912 38.1853 68.4912C38.6247 68.4912 39.4485 69.6171 39.4485 71.457C39.4485 73.297 38.6247 74.4229 38.1853 74.4229Z" fill="black"/>
<path d="M49.2388 59.9365C49.2388 56.9707 47.6597 54.6501 45.655 54.6501C43.6503 54.6501 42.0713 56.9707 42.0713 59.9365C42.0713 62.9024 43.6503 65.2229 45.655 65.2229C47.6597 65.2229 49.2388 62.9024 49.2388 59.9365ZM44.3918 59.9365C44.3918 58.0966 45.2019 56.9844 45.655 56.9844C46.1082 56.9844 46.9183 58.1103 46.9183 59.9365C46.9183 61.7627 46.1082 62.9024 45.655 62.9024C45.2019 62.9024 44.3918 61.7764 44.3918 59.9365Z" fill="black"/>
<path d="M85.392 0.839061C85.3783 0.825331 85.3645 0.82533 85.3645 0.82533C85.2272 0.701753 85.0762 0.591907 84.884 0.536984C84.7055 0.495792 84.5132 0.509522 84.3485 0.536984C84.321 0.536984 84.3073 0.536984 84.2798 0.536984L51.3395 9.3659C50.9414 9.47575 50.6255 9.79156 50.5157 10.1898L41.6868 43.13C41.6868 43.1437 41.6868 43.1712 41.6868 43.1849C41.6456 43.3497 41.6456 43.5282 41.6868 43.7067C41.7417 43.9127 41.8378 44.0912 41.9889 44.2422L66.1002 68.3535C66.3199 68.5732 66.622 68.6968 66.924 68.6968C67.0202 68.6968 67.13 68.6831 67.2261 68.6556L100.166 59.8267C100.194 59.8267 100.208 59.7992 100.235 59.7855C100.386 59.7306 100.537 59.6619 100.661 59.5383C100.674 59.5246 100.688 59.5246 100.688 59.5109C100.825 59.3736 100.908 59.2088 100.963 59.044C100.963 59.0303 100.99 59.0166 100.99 59.0028L109.819 26.0626C109.929 25.6644 109.805 25.2387 109.517 24.9367L85.392 0.839061ZM52.5753 11.4393L82.9342 3.31061L74.8055 33.6557L44.4604 41.7844L52.5753 11.4393ZM67.2536 66.2527L45.0371 44.0362L75.396 35.8939L97.6124 58.1103L67.2536 66.2527ZM99.2601 56.4764L77.0437 34.2599L85.1723 3.91477L107.389 26.1312L99.2601 56.4764Z" fill="black"/>
<path d="M60.2508 19.2521C57.3674 22.1356 56.5847 25.8704 58.4658 27.7652C59.1524 28.4518 60.0998 28.7951 61.1571 28.7951C62.9833 28.7951 65.139 27.8064 66.9652 25.9802C68.2696 24.6758 69.1896 23.138 69.5878 21.655C70.0272 19.9387 69.7388 18.4557 68.7502 17.4809C66.8691 15.586 63.1343 16.3687 60.2508 19.2521ZM67.3497 21.0646C67.0613 22.1493 66.3336 23.3439 65.345 24.3325C63.3403 26.3372 60.9374 26.9277 60.1273 26.1175C59.3171 25.3074 59.9076 22.9045 61.9123 20.8998C63.3403 19.4718 64.9605 18.7716 66.0727 18.7716C66.5258 18.7716 66.8966 18.8951 67.13 19.1286C67.487 19.4856 67.5694 20.1858 67.3497 21.0646Z" fill="black"/>
<path d="M54.374 44.6266C52.946 46.0409 53.4815 48.8008 55.5823 50.9016C56.8319 52.1648 58.3972 52.9063 59.7702 52.9063C60.6078 52.9063 61.3356 52.6317 61.8573 52.0962C62.3791 51.5744 62.6675 50.8467 62.6675 50.0091C62.6675 48.6497 61.9123 47.0844 60.6628 45.8212C58.5482 43.7341 55.802 43.1986 54.374 44.6266ZM60.2096 50.4485C60.0998 50.5583 59.8801 50.5721 59.7702 50.5721C59.2073 50.5721 58.2187 50.2288 57.23 49.2402C55.9256 47.9357 55.7197 46.5764 56.0217 46.2606C56.1041 46.1782 56.2552 46.137 56.4611 46.137C57.0515 46.137 58.0402 46.5077 59.0013 47.4689C59.9762 48.4438 60.3332 49.4461 60.3332 50.0091C60.3332 50.1327 60.3057 50.3386 60.2096 50.4485Z" fill="black"/>
<path d="M66.5396 53.895C65.702 53.895 64.9743 54.1834 64.4525 54.7051C63.6973 55.4603 63.4639 56.6137 63.7934 57.8907C64.068 58.9617 64.7271 60.0602 65.6608 60.9801C66.9515 62.2708 68.5168 62.9711 69.8487 62.9711C70.6588 62.9711 71.3866 62.7102 71.9221 62.1747C73.3364 60.7604 72.8146 58.0005 70.7138 55.8997C69.4643 54.6502 67.8989 53.895 66.5396 53.895ZM70.2744 60.527C69.9586 60.8428 68.5855 60.6231 67.2948 59.3187C66.6769 58.7008 66.2101 57.9456 66.0453 57.2865C65.9354 56.8609 65.9492 56.4764 66.1002 56.3391C66.2101 56.2293 66.4297 56.2155 66.5396 56.2155C67.1026 56.2155 68.0912 56.5588 69.0798 57.5474C70.3705 58.8518 70.5902 60.2112 70.2744 60.527Z" fill="black"/>
<path d="M70.5901 40.0682C69.1758 41.4962 69.6976 44.2423 71.7984 46.3432C73.1028 47.6476 74.6544 48.3479 75.9863 48.3479C76.7964 48.3479 77.5241 48.087 78.0596 47.5515C78.5814 47.0297 78.8697 46.302 78.8697 45.4644C78.8697 44.105 78.1146 42.5397 76.865 41.2765C75.9451 40.3565 74.8466 39.6974 73.7756 39.4091C72.4986 39.0658 71.3453 39.313 70.5901 40.0682ZM76.5492 45.4507C76.5492 45.5742 76.5355 45.7802 76.4257 45.89C76.1099 46.2059 74.7505 45.9862 73.4461 44.6817C72.1416 43.3773 71.9219 42.0179 72.2378 41.7021C72.3201 41.6198 72.4849 41.5786 72.6771 41.5786C72.8282 41.5786 72.9929 41.606 73.1852 41.6472C73.8443 41.8257 74.5995 42.2788 75.2173 42.8967C76.206 43.8853 76.5492 44.8877 76.5492 45.4507Z" fill="black"/>
<path d="M86.0649 58.4125C86.875 58.4125 87.6027 58.1516 88.1382 57.6161C89.58 56.1743 89.0582 53.4694 86.9299 51.3411C84.8291 49.2403 82.0829 48.7185 80.6549 50.1328C79.2269 51.5608 79.7624 54.307 81.8632 56.4078C83.1677 57.7122 84.733 58.4125 86.0649 58.4125ZM82.3163 51.7805C82.3987 51.6981 82.5498 51.6569 82.7557 51.6569C83.3324 51.6569 84.3348 52.0276 85.2959 52.9888C86.5866 54.2795 86.8063 55.6526 86.5042 55.9684C86.1884 56.2842 84.8154 56.0645 83.5247 54.7601C82.2202 53.4694 82.0005 52.0963 82.3163 51.7805Z" fill="black"/>
<path d="M86.9574 19.527C88.2069 20.7902 89.7722 21.5317 91.1452 21.5317C91.9828 21.5317 92.7106 21.2571 93.2323 20.7215C93.7678 20.1998 94.0425 19.472 94.0425 18.6345C94.0425 17.2751 93.2873 15.7098 92.0378 14.4466C89.9369 12.3457 87.1908 11.824 85.7628 13.2382C84.321 14.6663 84.8565 17.4262 86.9574 19.527ZM87.3967 14.8997C87.4791 14.8173 87.6302 14.7761 87.8361 14.7761C88.4128 14.7761 89.4152 15.1468 90.3763 16.108C91.3512 17.0829 91.7082 18.0852 91.7082 18.6482C91.7082 18.7718 91.6945 18.9777 91.5846 19.0876C91.4748 19.1974 91.2551 19.2112 91.1452 19.2112C90.5823 19.2112 89.5937 18.8679 88.605 17.8793C87.3006 16.5748 87.0809 15.2155 87.3967 14.8997Z" fill="black"/>
<path d="M91.255 39.5463C89.827 40.9605 90.3625 43.7204 92.4633 45.8212C93.7678 47.1257 95.3193 47.826 96.6512 47.826C97.4613 47.826 98.1891 47.5651 98.7246 47.0296C100.153 45.6153 99.6171 42.8554 97.5163 40.7546C96.5963 39.8346 95.4978 39.1755 94.4268 38.8872C93.1773 38.5576 92.0102 38.7911 91.255 39.5463ZM97.0906 45.3681C96.7748 45.6839 95.4017 45.4642 94.111 44.1598C92.8066 42.8554 92.6006 41.496 92.9027 41.1802C92.9851 41.0978 93.1499 41.0567 93.3421 41.0567C93.4931 41.0567 93.6716 41.0841 93.8501 41.1253C94.5092 41.3038 95.2507 41.7569 95.8823 42.3748C97.1867 43.693 97.4064 45.0661 97.0906 45.3681Z" fill="black"/>
<path d="M88.3853 26.1176C86.9436 27.5594 87.4654 30.2644 89.5936 32.3926C90.8981 33.6971 92.4497 34.3973 93.7815 34.3973C94.5917 34.3973 95.3194 34.1364 95.8549 33.6009C97.2829 32.1729 96.7474 29.4268 94.6466 27.326C92.5595 25.2251 89.8133 24.7034 88.3853 26.1176ZM93.0126 28.9737C94.3033 30.2644 94.523 31.6374 94.2209 31.9532C93.9051 32.2691 92.532 32.0494 91.2413 30.7449C89.9506 29.4542 89.7309 28.0812 90.033 27.7653C90.3488 27.4495 91.7219 27.6692 93.0126 28.9737Z" fill="black"/>
</svg>
