<svg width="56" height="63" viewBox="0 0 56 63" fill="none" xmlns="http://www.w3.org/2000/svg">
<path d="M19.6465 12.6885C24.7369 9.88529 30.8795 9.7675 36.0762 12.3691V12.3701C41.269 14.9753 44.8517 19.9667 45.6572 25.7217C46.4581 31.4719 44.3802 37.2498 40.1016 41.1777C38.483 42.5873 37.5374 44.6201 37.5039 46.7695V53.1641C37.4961 55.5505 35.8607 57.6184 33.543 58.1738L33.2451 58.2461L33.1738 58.5449C32.6218 60.8627 30.553 62.4999 28.168 62.5C25.7867 62.4998 23.7141 60.8625 23.1621 58.5449L23.0908 58.2461L22.792 58.1738C20.5508 57.6356 18.9456 55.6743 18.8408 53.3857L18.8359 53.1631V46.585C18.7983 44.5358 17.8896 42.5989 16.3359 41.2637H16.3369C12.1484 37.5197 10.0097 31.9898 10.5869 26.3994L10.6494 25.8584C11.3814 20.2986 14.7158 15.4015 19.6465 12.6895V12.6885ZM20.8359 50V53.1641C20.836 54.9119 22.2499 56.3309 23.998 56.3359H32.3369C34.0857 56.3313 35.4993 54.9119 35.5039 53.165V50H20.8359ZM43.4717 42.457C43.7444 42.4625 44.0011 42.5754 44.1904 42.7725L47.7373 46.3193C47.931 46.5078 48.0403 46.7637 48.043 47.0322C48.0417 47.3019 47.937 47.5551 47.748 47.7441C47.5584 47.9338 47.304 48.0376 47.0332 48.0381C46.7656 48.0347 46.5111 47.9264 46.3232 47.7334L46.2578 47.7969L46.3223 47.7324L42.7764 44.1865L42.7051 44.1113C42.5497 43.9302 42.4632 43.7046 42.4609 43.4717C42.4584 43.2015 42.5639 42.9424 42.7539 42.7549L42.7588 42.75C42.9454 42.5609 43.2028 42.4555 43.4717 42.457ZM12.8633 42.457C13.1341 42.4553 13.3946 42.5626 13.584 42.752L13.5859 42.7549C13.7744 42.9407 13.8801 43.1977 13.8789 43.4707C13.8736 43.744 13.7608 43.9981 13.5645 44.1816L13.5586 44.1875L13.5518 44.1934L10.0215 47.7324L10.0186 47.7354C9.8321 47.9242 9.57705 48.031 9.30566 48.0342C9.038 48.0334 8.78223 47.9291 8.59863 47.7432L8.59375 47.7383L8.52734 47.665C8.38306 47.4899 8.30187 47.2657 8.30078 47.0322C8.3033 46.783 8.39509 46.5489 8.55762 46.3682L12.1543 42.7715C12.3369 42.5762 12.5938 42.4628 12.8633 42.457ZM27.7021 12.4834L27.3135 12.5C23.2947 12.7112 19.5186 14.4636 16.7627 17.3828L16.499 17.6689C13.7231 20.7563 12.2859 24.8237 12.5078 28.9678C12.7297 33.1158 14.5861 37.006 17.6768 39.7861L17.6816 39.79C19.5264 41.4055 20.6487 43.6788 20.8154 46.1123L20.8359 46.6016V48H35.5039V46.7822C35.5299 44.0728 36.7067 41.5041 38.7373 39.7109L38.7432 39.7051C42.0119 36.7225 43.8601 32.4936 43.8359 28.0713C43.8124 23.7829 42.0311 19.703 38.9189 16.7705L38.6143 16.4902C35.6244 13.8016 31.7142 12.3687 27.7021 12.4834ZM27.8516 37.3027C28.3741 37.1988 28.9162 37.3657 29.291 37.7402L29.3682 37.8174C29.9178 38.4491 29.8913 39.4006 29.292 39.9971L29.29 40C28.9926 40.3003 28.5898 40.4678 28.1719 40.4648H28.168C27.6347 40.4647 27.1341 40.1996 26.8369 39.7568C26.5415 39.3163 26.4869 38.7553 26.6885 38.2598C26.8947 37.7667 27.3298 37.4066 27.8516 37.3027ZM27.9043 22.5693C28.9643 22.4235 29.9471 23.1616 30.1025 24.2217C30.1205 24.3746 30.1219 24.5301 30.1084 24.6836L30.0986 24.7568L28.7354 34.6113C28.7144 34.7616 28.6345 34.8976 28.5137 34.9893C28.3933 35.0805 28.2415 35.1204 28.0918 35.0996C27.8377 35.0641 27.639 34.8642 27.6016 34.6162L27.6006 34.6084L26.2373 24.7529C26.0994 23.6959 26.8443 22.7197 27.9053 22.5703L27.9043 22.5693ZM6.5 27.168C7.05198 27.168 7.5 27.616 7.5 28.168C7.5 28.7199 7.05198 29.168 6.5 29.168H1.5C0.948022 29.168 0.5 28.7199 0.5 28.168C0.5 27.616 0.948022 27.168 1.5 27.168H6.5ZM54.8359 27.1641C55.3879 27.1641 55.8359 27.6121 55.8359 28.1641C55.8359 28.7191 55.3888 29.1641 54.8359 29.1641H49.8359C49.2831 29.1641 48.8359 28.7191 48.8359 28.1641C48.8359 27.6121 49.284 27.1641 49.8359 27.1641H54.8359ZM9.2959 8.28125C9.56611 8.28677 9.82438 8.40005 10.0078 8.59375L13.5625 12.1484C13.7585 12.334 13.8724 12.592 13.875 12.8604C13.8776 13.1306 13.7731 13.3905 13.583 13.5781H13.582L13.5801 13.5801C13.3894 13.7708 13.1291 13.8762 12.8652 13.8711H12.8604C12.5908 13.8685 12.3351 13.7581 12.1455 13.5605L12.1465 13.5596L12.1387 13.5527L8.59668 10.0107L8.52637 9.93652C8.3727 9.75695 8.28742 9.53186 8.28516 9.2959C8.28257 9.02526 8.38788 8.76447 8.57617 8.57617C8.76854 8.38384 9.02442 8.27968 9.2959 8.28125ZM46.3086 8.61328C46.7022 8.24053 47.3189 8.24872 47.7012 8.63086L47.7021 8.63184C48.0869 9.01412 48.0952 9.63394 47.7227 10.0273L44.1973 13.5527L44.1904 13.5605C44.0008 13.758 43.7451 13.8685 43.4756 13.8711H43.4707C43.2069 13.8762 42.9466 13.7708 42.7559 13.5801L42.7539 13.5781L42.6865 13.5039C42.5391 13.325 42.4587 13.0968 42.4609 12.8604C42.4636 12.5892 42.576 12.333 42.7715 12.1504L46.3086 8.61328ZM28.168 0.5C28.7199 0.5 29.168 0.948022 29.168 1.5V6.5C29.168 7.05198 28.7199 7.5 28.168 7.5C27.616 7.5 27.168 7.05198 27.168 6.5V1.5C27.168 0.948022 27.616 0.5 28.168 0.5Z" fill="black"/>
</svg>
