<svg width="48" height="56" viewBox="0 0 48 56" fill="none" xmlns="http://www.w3.org/2000/svg">
<path d="M19.3197 0.251221L46.349 1.30103C46.4472 1.30486 46.5439 1.32827 46.6332 1.36938C46.7225 1.41055 46.8037 1.46906 46.8705 1.54126C46.937 1.61339 46.9889 1.69821 47.0228 1.79028C47.0398 1.83649 47.0523 1.88445 47.0599 1.93286L47.0687 2.07935L45.6791 38.0549C45.6715 38.2483 45.589 38.4314 45.4496 38.5657C45.3101 38.6999 45.1236 38.7754 44.9301 38.7756H44.9213C44.9139 38.7755 44.9013 38.7751 44.8851 38.7747C44.8527 38.7737 44.805 38.7719 44.7445 38.7698C44.623 38.7654 44.4498 38.7592 44.2426 38.7512C43.8279 38.7352 43.2763 38.7135 42.725 38.6917C42.1737 38.6698 41.6218 38.647 41.2074 38.6311C41.0006 38.6232 40.8274 38.6168 40.7054 38.6125C40.6448 38.6104 40.5957 38.6086 40.5619 38.6077C40.5455 38.6072 40.5312 38.6078 40.5209 38.6077C40.516 38.6076 40.5097 38.6067 40.5043 38.6067C40.502 38.6067 40.4966 38.6073 40.4906 38.6077C40.488 38.6078 40.4812 38.6077 40.473 38.6086C40.4687 38.6092 40.4574 38.6112 40.4506 38.6125C40.4391 38.6153 40.405 38.6274 40.3832 38.6379L40.2533 38.7092V46.5442C40.2432 46.7474 40.1626 46.9407 40.0267 47.092L31.5912 55.5286C31.4497 55.6693 31.2586 55.7491 31.059 55.7502H9.93005C9.83182 55.7503 9.73375 55.7311 9.64294 55.6936C9.55205 55.656 9.46839 55.6 9.3988 55.5305C9.32942 55.461 9.27428 55.3781 9.23669 55.2874C9.19909 55.1965 9.18002 55.0986 9.18005 55.0002V45.0979L8.89294 45.1409C8.6756 45.1736 8.41566 45.2348 8.18396 45.2805C7.94094 45.3284 7.70902 45.3638 7.50134 45.3616C7.29394 45.3593 7.13217 45.3199 7.01306 45.2375C6.92803 45.1787 6.84799 45.0858 6.78845 44.9338L6.73669 44.76L0.262085 9.34106C0.227909 9.1457 0.27141 8.9447 0.384155 8.78149C0.497158 8.61796 0.670285 8.50591 0.865601 8.46899L0.864624 8.46802L18.3724 5.27661L18.5414 0.969971C18.5446 0.87162 18.5669 0.774317 18.6078 0.684814C18.6487 0.595289 18.7074 0.514344 18.7797 0.44751C18.8518 0.380891 18.9365 0.328907 19.0287 0.295166C19.121 0.261424 19.2195 0.246806 19.3177 0.251221H19.3197ZM10.6801 14.9104V54.2502H30.3099V46.5569C30.3099 46.4584 30.3289 46.3607 30.3666 46.2698C30.4042 46.1789 30.4592 46.0962 30.5287 46.0266C30.5983 45.957 30.6818 45.9012 30.7728 45.8635C30.8637 45.826 30.9617 45.8068 31.0599 45.8069H38.7533V14.9104H10.6801ZM31.8099 47.3069V53.1897L37.6927 47.3069H31.8099ZM1.87244 9.80981L8.07849 43.7629L8.32361 43.719L8.974 43.6008L9.18005 43.5637V14.1604C9.18 14.062 9.19906 13.9643 9.23669 13.8733C9.2743 13.7824 9.32932 13.6997 9.3988 13.6301C9.46844 13.5605 9.55196 13.5047 9.64294 13.467C9.73378 13.4295 9.83178 13.4103 9.93005 13.4104H28.4896L26.9965 5.22876L1.87244 9.80981ZM19.8959 4.6897L19.8842 5.00122L27.4642 3.61841C27.6597 3.58372 27.8614 3.62858 28.0248 3.74146C28.1882 3.85448 28.3007 4.0276 28.3373 4.2229L29.9769 13.2053L30.014 13.4104H39.5033C39.6016 13.4104 39.6995 13.4294 39.7904 13.467C39.8813 13.5047 39.964 13.5606 40.0336 13.6301C40.103 13.6997 40.1581 13.7825 40.1957 13.8733C40.2333 13.9642 40.2534 14.062 40.2533 14.1604V37.0969L40.4935 37.1057L44.2094 37.2483L45.5316 3.01978L45.5404 2.76978L20.0101 1.77856L19.8959 4.6897Z" fill="black"/>
</svg>
