<svg width="74" height="74" viewBox="0 0 74 74" fill="none" xmlns="http://www.w3.org/2000/svg">
<path d="M70.1978 3.60831C66.7197 0.130564 61.0679 0.130564 57.6168 3.60831L53.9485 7.27628H53.8942L51.0954 10.0748V10.1292L8.84244 52.3785C8.84244 52.3785 8.65223 52.5415 8.59789 52.6774L0.853858 72.0762C0.745169 72.3208 0.826685 72.6196 1.01689 72.8098C1.15275 72.9457 1.31578 73 1.50599 73C1.58751 73 1.66902 73 1.75054 72.9457L21.1511 65.2023C21.1511 65.2023 21.2869 65.1208 21.3413 65.0664H21.3684L70.1966 16.2424C71.8813 14.5579 72.8052 12.33 72.8052 9.93902C72.8052 7.54807 71.8813 5.32014 70.1966 3.63561L70.1978 3.60831ZM2.70205 71.0982L5.14754 64.9579L8.84296 68.653L2.70205 71.0982ZM10.2016 68.0823L5.69099 63.5721L9.46796 54.117L19.6578 64.3059L10.2016 68.0823ZM20.88 63.5994L10.2016 52.9218L51.585 11.5419L62.2635 22.2194L20.88 63.5994ZM63.2417 21.2413L52.5632 10.5638L54.3838 8.74337L65.0623 19.4209L63.2146 21.2685L63.2417 21.2413ZM69.2467 15.2368L66.0404 18.4429L55.3619 7.76534L58.5682 4.5593C61.5028 1.62495 66.3123 1.62495 69.2467 4.5593C70.6597 5.97213 71.4476 7.87402 71.4476 9.88459C71.4476 11.8952 70.6596 13.797 69.2467 15.2099V15.2368ZM49.221 21.7305L20.3915 50.5575C20.3915 50.5575 20.0926 50.7477 19.9024 50.7477C19.7122 50.7477 19.5492 50.6933 19.4133 50.5575C19.1416 50.2858 19.1416 49.8511 19.4133 49.6065L48.2428 20.7795C48.5145 20.5078 48.9493 20.5078 49.1939 20.7795C49.4385 21.0512 49.4656 21.4859 49.1939 21.7305H49.221ZM23.2444 53.411L52.0739 24.584C52.3456 24.3123 52.7804 24.3123 53.0249 24.584C53.2695 24.8557 53.2967 25.2904 53.0249 25.5349L24.1955 54.362C24.1955 54.362 23.8966 54.5521 23.7064 54.5521C23.5162 54.5521 23.3531 54.4978 23.2173 54.362C22.9455 54.0903 22.9455 53.6555 23.2173 53.411H23.2444Z" fill="black" stroke="black" stroke-width="0.5"/>
</svg>
