<?xml version="1.0" encoding="UTF-8"?><svg id="Layer_2" xmlns="http://www.w3.org/2000/svg" viewBox="0 0 342.56 489.92"><defs><style>.cls-1{fill:#7c7c7e;}.cls-2{fill:#0a0c0d;}.cls-3{fill:#faf7f8;}.cls-4{fill:#656868;}.cls-5{fill:#222325;}.cls-6{fill:#323433;}.cls-7{fill:#dfe0e2;}.cls-8{fill:#c8c8ca;}</style></defs><g id="Layer_1-2"><g id="Generative_Object"><path class="cls-3" d="M333.16,489.92H9.82c-4.99-5.07-8.21-10.95-8.97-18.15C1.7,320.9-.85,169.63,2.14,19.01,6,9.46,14.14,2.32,24.56.85h294.29c11.87,2.03,20.73,11.11,22.85,22.85v449.77c-.92,6.53-4.41,11.61-8.54,16.44Z"/><path class="cls-2" d="M334.44,489.92h-1.28c4.14-4.83,7.62-9.91,8.54-16.44V23.71c-2.12-11.74-10.99-20.82-22.85-22.85H24.56C14.14,2.32,6,9.46,2.14,19.01-.85,169.63,1.7,320.9.85,471.76c.76,7.2,3.98,13.08,8.97,18.15h-1.28c-4.39-4.41-7.15-9.93-8.54-16.02V23.28C2.46,11.22,11.59,2.12,23.71,0h295.57c11.87,2.17,20.94,10.99,23.28,22.85v451.9c-1.27,5.78-4.1,10.85-8.12,15.16Z"/><path class="cls-2" d="M104.86,259.27c61.48-3.13,69.58,91.19,8.54,96.1-66.83,5.38-70.62-92.94-8.54-96.1Z"/><path class="cls-3" d="M102.3,263.54c60.99-5.87,67.9,84.12,10.25,88.42s-65.23-83.12-10.25-88.42Z"/><path class="cls-3" d="M145.65,281.48c-22.42-33.62-79.33-21.53-82.86,21.14-.73,8.76,1.32,16.05,3.42,24.35-9.04-19.27-3.34-44.68,13.88-57.45,21.55-15.97,51.23-10.32,65.56,11.96Z"/><path class="cls-7" d="M68.34,330.17c10.44,13.6,19.35,21.99,37.8,22.64,37.52,1.33,58.6-37.31,40.79-69.19,29.33,52.02-38.11,95.76-75.17,52.75-1.54-2.04-2.46-3.82-3.42-6.19Z"/><path class="cls-3" d="M146.93,283.61c-.36-.64-.88-1.52-1.28-2.14.69,1.04.7,1.09,1.28,2.14Z"/><path class="cls-1" d="M68.34,330.17c-.03-.07-1.42-.54-.64-1.28.68.26.57,1.19.64,1.28Z"/><path class="cls-2" d="M104.86,273.36c28.36-1.86,47.97,29.05,31.61,52.96,16.51-28.67-9.37-60.01-40.58-50.4,2.41-1.44,6.1-2.37,8.97-2.56Z"/><path class="cls-2" d="M76.67,293.86c-6.25,15.99-.3,32.77,13.67,42.29-13.44-6.96-19.26-22.94-16.02-37.37l2.35-4.91Z"/><path class="cls-2" d="M103.58,275.07c44.89-3.65,51.14,61.6,6.83,64.92-42.69,3.2-48.46-61.54-6.83-64.92Z"/><path class="cls-3" d="M103.58,275.93c43.97-3.65,49.79,59.31,7.69,63.22-42.91,3.98-48.2-59.86-7.69-63.22Z"/><path class="cls-2" d="M104.01,31.61c62.25-4.14,70.62,91.22,9.4,96.1-66.47,5.31-70.64-92.03-9.4-96.1Z"/><path class="cls-3" d="M101.44,32.89c30.34-3.31,54.03,21.1,52.32,51.04-2.67,46.86-67.83,57.87-86.71,16.23,25.01,46.36,96.02,23.55,85-29.9-.62-.57-.52-.49-.64.21-.27,1.56,1.25,9.68,1.07,13.03-2.91,52.73-80.64,53.82-88.42,4.7-9.12-57.62,72.45-73.04,87.35-18.58-5.1-30.64-41.43-44.04-67.49-29.04-19.72,11.35-26.09,38.04-17.3,58.3-4.68-6.78-5.42-18.07-4.27-26.48,2.67-19.53,19.05-37.32,39.08-39.51Z"/><path class="cls-2" d="M104.01,45.7c29.22-2.37,48.67,28.57,32.46,53.39.82-4.23,3.65-7.91,4.48-12.17,5.42-27.68-22.15-48.16-47.62-37.8,2.1-1.89,7.84-3.19,10.68-3.42Z"/><path class="cls-2" d="M90.12,107.64c.44.28.53.44,1.28.85l-.21.85c-14.66-7.54-22.31-27.21-14.95-42.29-5.16,16.16-.46,31.6,13.88,40.58Z"/><path class="cls-1" d="M92.05,49.12c1.53.19-1.21,1.68-1.49,1.07l1.49-1.07Z"/><path class="cls-2" d="M91.41,108.49c-.06-.91-1.08-.73-1.28-.85-36.47-23.43-2.2-80.48,36.52-54.25,34.66,23.48,1.05,75.11-35.24,55.1Z"/><path class="cls-3" d="M106.57,47.84c41.23-.2,45.63,59.55,5.13,63.64-45.07,4.56-48.31-63.43-5.13-63.64Z"/><path class="cls-8" d="M91.41,108.49c-.75-.42-.84-.57-1.28-.85.2.12,1.22-.05,1.28.85Z"/><path class="cls-2" d="M231.72,259.27c62.06-3.57,69.69,91.55,8.54,96.1-66.68,4.96-69.98-92.57-8.54-96.1Z"/><path class="cls-3" d="M277.21,323.76c-15.36,46.27-93.34,32.87-86.28-22.85,7.73-61.01,107.66-41.53,86.28,22.85Z"/><path class="cls-3" d="M196.05,331.02c7.04,10.38,16.98,18.64,29.69,20.93,22.42,4.04,44.11-6.33,51.47-28.19,3.71-11.01,4.1-20.64.43-31.82-16.86-51.32-106.4-33.97-83.72,35.24-9.56-12.67-4-38.7,5.55-50.19,30.96-37.21,89.15-7.62,80.73,40.15-7.3,41.37-67.21,49.7-84.14,13.88Z"/><path class="cls-3" d="M196.05,331.02c-.24-.35-1.74-1.19-1.07-2.14.82.48.78,1.52,1.07,2.14Z"/><path class="cls-1" d="M193.92,327.18c.02.07,1.42.53.64,1.28-1.06.16-.48-1.06-.64-1.28Z"/><path class="cls-2" d="M220.4,276.78c30.02-15.78,63.55,22.08,42.93,49.97,17.2-30.4-10.1-61.92-42.93-49.97Z"/><path class="cls-2" d="M214.85,334.44c-11.84-6.44-17.64-25.73-12.17-38.01-4.46,17.02,1.14,26.31,12.17,38.01Z"/><path class="cls-2" d="M220.4,276.78c-.11.04-1.27,1.81-2.14,1.07.51-1.17,1.72-.85,2.14-1.07Z"/><path class="cls-2" d="M230.44,275.07c44.92-4.08,51.56,61.47,7.26,64.92-42.71,3.33-48.63-61.16-7.26-64.92Z"/><path class="cls-1" d="M217.19,278.06c1.22-.16.02,1.22-.85,1.28-.37-.31.78-1.27.85-1.28Z"/><path class="cls-6" d="M214.85,334.44c.05.05,1.04-.03,1.28.64-.73.79-1.19-.59-1.28-.64Z"/><path class="cls-3" d="M230.44,275.93c44.11-4.07,50.17,59.2,8.12,63.22-42.99,4.1-48.32-59.51-8.12-63.22Z"/><path class="cls-2" d="M102.3,145.65c68.46-6.15,72.46,102.42,0,95.68-55.18-5.13-55.86-90.65,0-95.68Z"/><path class="cls-3" d="M105.29,149.5c62.11-2.97,63.26,94.12-2.14,88.42-52.63-4.59-52.86-85.79,2.14-88.42Z"/><path class="cls-3" d="M104.43,146.51c28.85-1.64,50.93,22.79,49.33,51.04-2.63,46.37-66.17,57.78-86.28,17.51,24.84,42.24,90.22,25.12,85.43-26.48-3.11-33.4-41.01-50.5-69.41-33.96-19.9,11.59-26.11,39.49-16.02,59.58-9.26-13.3-6.11-36.3,2.99-49.12,7.17-10.1,21.62-17.88,33.96-18.58Z"/><path class="cls-2" d="M102.72,159.75c29.59-2.94,50.26,26.95,33.74,52.54,17.16-29.75-11.83-61.9-43.14-49.12,1.04-1.86,7.15-3.19,9.4-3.42Z"/><path class="cls-5" d="M91.41,222.11c2.12,1.74-4.33-1.12-4.48-1.71-11.85-8.81-17.31-26.23-10.68-39.72-4.43,12.22-1.65,26.8,7.47,36.09,2.48,2.53,5.55,3.58,7.69,5.34Z"/><path class="cls-2" d="M91.41,222.11c-36.49-20.12-7.61-79.85,33.53-55.95,36.82,21.39,4.28,76.81-33.53,55.95Z"/><path class="cls-3" d="M104.01,161.88c44.68-3.18,48.92,62.2,4.7,63.64-40.55,1.32-45.06-60.77-4.7-63.64Z"/><path class="cls-2" d="M229.58,145.65c63.89-5.62,72.17,90.06,11.96,95.68-66.77,6.23-71.87-90.41-11.96-95.68Z"/><path class="cls-3" d="M233,149.5c61.18-2.64,62.94,93.78-2.56,88.42-52.31-4.28-53.65-85.99,2.56-88.42Z"/><path class="cls-3" d="M231.72,146.51c32.24-1.7,54.58,27.97,48.05,58.73-8.48,39.95-65.25,46.89-84.14,11.53,25.58,39.48,87.69,23.23,84.57-26.48-2.15-34.21-40.17-52.64-69.41-35.67-19.97,11.6-26.01,38.74-16.44,59.16-15.68-28.25,4.7-65.55,37.37-67.27Z"/><path class="cls-2" d="M230.01,159.75c29.48-2.99,49.9,27.05,33.74,52.54,1.32-4.9,4.37-9.59,4.91-14.74,2.91-27.82-27.09-45.69-51.04-33.1,2.78-2.5,8.75-4.33,12.39-4.7Z"/><path class="cls-2" d="M203.1,181.53c-5.13,15.52.92,31.73,14.52,40.58-14.16-6.73-21.03-26.3-14.52-40.58Z"/><path class="cls-2" d="M233.43,161.03c42.36-.6,46.82,60.82,5.55,64.92-45.27,4.5-50.16-64.3-5.55-64.92Z"/><path class="cls-3" d="M231.72,161.88c43.95-2.52,48.18,61.7,4.7,63.64-41.13,1.84-45.79-61.29-4.7-63.64Z"/><path class="cls-2" d="M231.29,31.61c66.08-4.04,70.42,101.89-1.28,96.1-56.6-4.57-56.57-92.57,1.28-96.1Z"/><path class="cls-3" d="M275.93,99.52c-2.09,4.32-6.09,9.77-9.4,13.24-42.27,36.32-98.98-17.17-67.49-59.58,29.77-40.1,97.09-6.84,76.88,46.34Z"/><path class="cls-3" d="M272.51,53.39c-14.12-19.3-41.6-24.53-62.15-12.39s-25.9,39.92-15.59,60.01h-.85c-10.48-21.15-3.76-49.44,16.87-61.72s49.55-6.9,61.72,14.1Z"/><path class="cls-7" d="M266.53,112.76c4.68-4.02,7.19-7.43,9.4-13.24,7.17-14.82,4.64-32.23-3.42-46.13,34.67,47.38-35.04,101.29-73.04,56.17l-4.7-7.69c13.71,25.03,51.69,31.95,71.76,10.89Z"/><path class="cls-2" d="M231.29,45.7c28.86-2.14,48.39,28.33,32.46,52.96,1.41-5.06,4.41-9.8,4.91-15.16,2.4-25.84-23.48-43.57-47.2-34.81,2.07-1.73,7.14-2.79,9.82-2.99Z"/><path class="cls-2" d="M215.27,106.36c1.19.88,1.16.92,2.56,1.71l-.21.85c-14.17-7.66-21.49-26.61-14.52-41.43-4.72,15.15-.64,29.73,12.17,38.87Z"/><path class="cls-2" d="M266.53,112.76c3.31-3.47,7.31-8.92,9.4-13.24-2.21,5.81-4.71,9.22-9.4,13.24Z"/><path class="cls-1" d="M216.34,50.83c1.07-.15.46.85-.43.85-.43-.22.35-.84.43-.85Z"/><path class="cls-2" d="M217.84,108.06c-.25-1.02-2.02-1.32-2.56-1.71-33.96-25.11,1.51-79.03,39.08-52.54,33.45,23.59.63,75.06-36.52,54.25Z"/><path class="cls-3" d="M229.15,48.27c44.83-5.15,51.94,58.82,9.82,63.22-43.34,4.52-48.82-58.74-9.82-63.22Z"/><path class="cls-8" d="M217.84,108.06c-1.4-.79-1.37-.83-2.56-1.71.54.39,2.32.69,2.56,1.71Z"/><path class="cls-2" d="M102.3,373.31c67.4-6.03,72.73,99.83,2.56,96.1-57.84-3.07-59.17-91.04-2.56-96.1Z"/><path class="cls-3" d="M67.91,443.36c22.06,41.55,90.63,24.79,85-27.12l-1.07-4.48c5.53,32.12-18.06,58.15-50.83,53.82-18.75-2.48-35.5-19.81-37.37-38.66-5.51-55.32,70.9-68.57,87.35-17.73-6.7-32.6-49.72-43.6-73.89-22.21-15.09,13.35-18.51,38.81-9.18,56.38-32.35-60.02,61.66-99.18,82.86-38.66,19.8,56.54-56.39,87.78-82.86,38.66Z"/><path class="cls-2" d="M67.91,443.36c-9.33-17.57-5.9-43.03,9.18-56.38,24.18-21.39,67.2-10.39,73.89,22.21-16.44-50.84-92.86-37.6-87.35,17.73,1.88,18.84,18.62,36.17,37.37,38.66,32.77,4.34,56.36-21.7,50.83-53.82l1.07,4.48c5.64,51.91-62.94,68.67-85,27.12Z"/><path class="cls-2" d="M102.3,387.41c29.98-3.23,50.17,26.44,34.6,52.54l4.48-13.45c3.29-26.62-22.63-45.64-47.2-36.09.99-1.51,6.29-2.79,8.12-2.99Z"/><path class="cls-5" d="M88.42,448.06c.65.54,1.11.71,1.28.85.77.45.99.74,2.14,1.28l-.21.85c-15.4-7.76-23.09-28.02-14.95-43.57-5.75,14.88-1.55,31.68,11.75,40.58Z"/><path class="cls-4" d="M151.42,409.62c.21-.01.29.37.21.64-.24,1.59-.76-.61-.21-.64Z"/><path class="cls-2" d="M91.83,450.19c-.1-1.04-1.86-1.06-2.14-1.28-.24-.14-.96-.64-1.28-.85-32.46-27.23-1.67-74.34,35.24-55.1,36.65,19.1,10.08,76.92-31.82,57.24Z"/><path class="cls-3" d="M103.58,389.54c43.63-3.79,50.37,60.13,6.83,63.64-41.68,3.36-47.56-60.1-6.83-63.64Z"/><path class="cls-8" d="M91.83,450.19c-1.14-.54-1.37-.83-2.14-1.28.27.22,2.03.25,2.14,1.28Z"/><path class="cls-8" d="M89.7,448.91c-.18-.14-.63-.31-1.28-.85.32.22,1.05.72,1.28.85Z"/><path class="cls-2" d="M230.01,373.31c64.65-5.23,71.87,93.48,8.12,96.1-64.41,2.65-67.25-91.32-8.12-96.1Z"/><path class="cls-2" d="M195.62,444.64c-.22-.38-.59-1.19-.85-1.71-28.86-56.99,55.72-93.93,80.3-42.93,27.36,56.76-51.75,92.28-79.45,44.63Z"/><path class="cls-3" d="M232.14,377.15c59.34-2.94,63.82,85.86,6.41,88.84-60.63,3.15-64.04-85.98-6.41-88.84Z"/><path class="cls-3" d="M195.62,444.64c27.7,47.64,106.8,12.13,79.45-44.63-24.58-51.01-109.16-14.06-80.3,42.93-29.14-56.44,52.25-96.1,79.87-45.49,30.7,56.27-49.35,98.79-79.02,47.2Z"/><path class="cls-3" d="M195.62,444.64c-.5-.86-.53-1.06-.85-1.71.27.52.64,1.33.85,1.71Z"/><path class="cls-2" d="M229.58,387.41c30.25-3.29,50.67,27.8,33.74,53.39,17.43-30.03-10.46-62.25-42.71-50.4,2.22-1.42,6.43-2.71,8.97-2.99Z"/><path class="cls-2" d="M202.89,409.62c-5,15.95,1.01,31.43,14.74,40.58-14.04-6.84-21.37-26.2-14.74-40.58Z"/><path class="cls-4" d="M202.89,409.62c.17-.53-.25-1.22.64-1.71.68.59-.51,1.43-.64,1.71Z"/><path class="cls-1" d="M218.05,391.25c1.07-.15.46.85-.43.85-.43-.22.35-.84.43-.85Z"/><path class="cls-2" d="M230.86,388.69c40.37-3.1,51.25,53.37,14.52,63.64-48.66,13.62-59.8-60.17-14.52-63.64Z"/><path class="cls-3" d="M230.86,389.54c43.37-3.52,50,59.75,7.26,63.64-42.62,3.88-48.34-60.31-7.26-63.64Z"/></g></g></svg>