<?xml version="1.0" encoding="UTF-8"?><svg id="Layer_1" xmlns="http://www.w3.org/2000/svg" viewBox="0 0 299.01 378.96"><defs><style>.cls-1{fill:#fff;}.cls-2{fill:#171617;}</style></defs><g id="Generative_Object"><path class="cls-2" d="M162.93,284.34c1.66-.26,26.85,12.07,30.68,13.76,3.07,1.36,9.68,3.16,12.04,4.59,1.14.69.82.73,1.29,1.86v49.61l-42.58,24.8c-14.94-7.61-29.66-16.15-43.73-25.09v-50.18c.27-1.05,9.19-3.78,10.75-4.44,10.68-4.56,21.14-9.75,31.54-14.91Z"/><polygon class="cls-1" points="122.78 306.13 163.07 327.49 162.93 376.1 122.35 353.59 122.78 306.13"/><path class="cls-2" d="M149.45,326.49c6.18-1.85,11.76,14.26,6.88,15.48-6.72,1.69-11.2-14.19-6.88-15.48Z"/><path class="cls-2" d="M127.94,338.53c6.48-1.63,12.8,16.44,5.16,15.48-4.99-.62-9.77-14.32-5.16-15.48Z"/><path class="cls-2" d="M127.37,314.45c5.99-1.77,11.66,14.04,6.88,15.48-6.01,1.81-11.73-14.05-6.88-15.48Z"/><path class="cls-2" d="M150.02,351.44c6.12-1.83,11.63,13.92,6.88,15.2-6.39,1.72-11.31-13.87-6.88-15.2Z"/><path class="cls-2" d="M139.13,333.08c6.27-1.38,12.45,16.1,4.59,14.62-4.79-.9-9.2-13.61-4.59-14.62Z"/><polygon class="cls-1" points="204.51 306.42 205.22 353.59 166.08 375.81 165.65 327.21 204.51 306.42"/><path class="cls-2" d="M197.91,315.59c6.98-.66.87,17-5.45,15.77-4.85-.94.18-15.27,5.45-15.77Z"/><path class="cls-2" d="M177.27,326.78c6.85-1.26,2.82,12.72-2.01,14.91-8.93,4.06-3.45-13.91,2.01-14.91Z"/><path class="cls-2" d="M197.91,338.82c6.29-.35,1.3,14.63-4.01,15.48-7.57,1.22-1.47-15.18,4.01-15.48Z"/><path class="cls-2" d="M177.55,350.58c6.39-.6,2.06,12.81-2.58,14.91-8.45,3.82-3.4-14.35,2.58-14.91Z"/><path class="cls-2" d="M187.88,333.95c5.72.34.36,15.99-5.74,14.91-5.02-.89.46-15.23,5.74-14.91Z"/><path class="cls-1" d="M163.21,286.06c13.45,6.34,26.85,12.88,40.86,17.92l-40.29,21.08-40.58-21.08c13.76-4.69,27.39-10.8,40-17.92Z"/><path class="cls-2" d="M141.71,300.11c9.63-1.25,11.36,7.53,2.87,8.32s-11.05-7.25-2.87-8.32Z"/><path class="cls-2" d="M182.71,300.11c9.78-1.31,11.35,7.57,2.87,8.32s-10.77-7.26-2.87-8.32Z"/><path class="cls-2" d="M161.49,290.93c9.78-1.57,12.13,6.94,4.01,8.03-8.67,1.16-11.78-6.79-4.01-8.03Z"/><path class="cls-2" d="M161.49,311.01c11.8-2.1,12.02,9.56.57,8.03-5.9-.79-6.42-6.99-.57-8.03Z"/><path class="cls-2" d="M162.35,301.26c6.82-1.34,8.43,5.29,3.44,6.31-6.69,1.36-8.68-5.28-3.44-6.31Z"/><path class="cls-2" d="M80.08.03c2.29-.65,14.27,8.69,14.8,12.07,2.05-1.61,14.3-6.89,15.38-3.7.64,1.96-7.09,6.57-6.62,7.79,25.63,5.71,32.82,36.85,29.98,59.57,14.97,4.6,9.99,24.48.19,32.12-1.96,1.53-8.11,3.7-8.37,4.09-.33.48-1.33,6.34-1.95,7.79-4.91,11.51-14.17,18.92-25.5,23.56-1.74.71-10.18,1.93-9.15,4.09.2.42,6.64,1.1,8.76,2.53s3.82,5.55,4.28,5.84c.8.51,5.86.96,7.4,1.56,8.83,3.43,11.39,15.63,15.96,22.97l10.51-9.73c11.82,6.34,24.07,13.26,35.82,20.25l-6.42-7.2c-3.92-10.04,8.73-27.83,10.9-38.94,1.09-5.55,2.07-27.71-.78-31.93-.18-.27-4.81-2.58-5.65-3.31-5.4-4.73-9.22-10.45-7.98-18.1.75-4.64,5.18-6.29,5.45-7.01.36-.96-.98-16.59-.78-19.86,2.13-34.76,38.38-62.63,72.61-55.48,5.08,1.06,9.11,5.28,10.9,5.84.98.31,3.22-.29,4.28,0,25.61,6.91,36.4,28.39,38.74,53.54.25,2.68-.27,15.21,0,15.96.4,1.1,5.16,2.54,5.84,8.18,1.23,10.26-6.56,17.57-15.18,21.41.07,22.25,1.22,44.73.39,66.97-.08,2.12-1.95,6.91-1.95,8.18.02,4.47,4.62,14.52,4.67,19.86.04,4.73-2.84,2.06-3.5,3.89-.52,1.42,2.81,18.09,1.95,22.97-1.6,9.06-17.25,9.82-24.14,11.68l37.18-.19c.64.64,1.44,1.7.39,2.34l-77.48-.39c-6.46,6.12-20.22,9.69-28.81,8.18-1.55-.27-6.25-3.59-6.62-3.5-1.53.34-16.66,22.09-21.03,23.36l-42.05-22.58c-5.82,3.39-11.7,3.18-18.3,2.34-7.46-.96-12.56-3.52-18.3-8.18l-85.46-.97.19-2.14,34.85.19c-5.49-2.37-9.99-4.29-10.9-10.9-.51-3.69,1.67-19.07,1.17-20.25-.71-1.66-3.36.43-3.5-3.5-.38-10.47,8.47-36.31,15.96-44,5.45-5.59,12.73-7.12,17.72-11.1,2.38-1.9,4.93-6.78,8.37-8.37-12.36-1.26-24.18-5.88-32.32-15.57-1.15-1.37-5.52-8.96-6.03-9.15-.83-.31-4.32.07-5.84-.39-12.93-3.96-27.26-23.25-10.32-31.34-4.75-11.28-6.93-23.97-3.11-35.82-2.33-.87-7.31,4.32-6.62-1.17.94-7.48,13.33-12.85,15.96-16.74.26-.39.82-3.4,1.17-3.89,6.13-8.78,15.83-12.78,25.7-15.96-9.57-4.01-15.2-7.89-1.75-12.26,11.91-3.87,27.44-4.27,38.55,1.95,1.89-.59-1.92-6.74.39-7.4Z"/><polygon class="cls-1" points="136.14 173.68 181.11 198.41 143.93 241.04 95.85 213.2 136.14 173.68"/><path class="cls-2" d="M143.54,218.85c11.05-1.61,9.23,9.47-.39,11.68-13.78,3.17-7.86-10.48.39-11.68Z"/><path class="cls-2" d="M162.62,197.44c10.97-1.48,9.03,9.23-.78,11.29-14.61,3.06-7.88-10.12.78-11.29Z"/><path class="cls-2" d="M134.98,181.08c10.06-1.16,10.07,9.14,0,11.29-14.74,3.15-8.38-10.32,0-11.29Z"/><path class="cls-2" d="M113.95,203.28c12.35-1.84,10.97,8.64,1.56,10.9-11.87,2.85-11.2-9.46-1.56-10.9Z"/><path class="cls-1" d="M183.65,200.16l16.94,29.01c-.08.49-5.76.32-6.03.19-1.14-.5.01-7.4-6.62-3.5-3.65,2.14-7.11,10.08-6.42,14.21.3,1.8,1.1,4.42,1.56,7.01.11.62,1.73,2.84,1.56,3.89-.25,1.5-15.82,18.38-18.1,20.83l-20.05-29.79,37.18-41.86Z"/><path class="cls-2" d="M173.52,244.94c9.81-1.81,1.63,19.43-5.84,17.52-5.62-1.44.67-16.57,5.84-17.52Z"/><path class="cls-2" d="M178.97,211.45c9.05-1.56,1.36,19.33-6.23,17.52-5.72-1.37.78-16.58,6.23-17.52Z"/><path class="cls-2" d="M161.84,231.7c9.15-1.48,1.4,19.48-6.23,17.52-5.69-1.46,1.07-16.69,6.23-17.52Z"/><path class="cls-1" d="M96.82,216.9l46.33,26.48c2.22,3.71,21.85,28.25,20.83,30.17l-39.91-20.83c-1.73-3.14,3.96.36,5.84-1.56,2.79-2.85-3.52-5.58-4.87-7.2-.12-.14-.57-2.67-1.17-3.5-2.53-3.5-4.79-2.21-8.57-2.73.09-1.61,1.11-3.48.78-5.06-.55-2.63-7.92-7.34-10.32-6.81-2.09.46-.61,3.96-2.34,3.5l-6.62-12.46Z"/><path class="cls-2" d="M130.69,240.65c2.02-1.42,13.93,5.45,11.88,8.76-2.84,4.57-15.18-6.43-11.88-8.76Z"/><path class="cls-2" d="M145.1,256.62c2.25-.11,12.55,6.69,10.32,9.15-3.63,4-17.44-8.81-10.32-9.15Z"/><path class="cls-1" d="M102.66,158.5c12.92.33,15.93,14.88,20.44,24.33l-11.1,11.1c-.98-2.83-1.56-21.52-3.11-22.19-.62-.04-1.41-.11-1.75.58-.78,1.58,2.92,20.71,2.34,24.14-5.86,5.09-10.68,12.39-17.52,15.96l7.98,17.33c-4.57-1.91-10.03,6.15-12.07,6.62-2.32.53-32.9-7.58-33.68-9.15-.21-.42.11-7.95.39-8.57.37-.79,1.59-.38,1.95-1.17.85-1.87.92-19.79.78-22.97-.12-2.76-1.58-23.76-6.42-21.61-1.86.82,1.38,4.01,1.75,5.26,3.38,11.24,1.47,25.72,1.56,37.38-9.66,1.54-20.68.5-29.2-4.28,3.16-20.64,8.14-43.7,30.17-51.59,1.41,3.79,8.34,19.37,11.68,20.64,2.73,1.03,3.44-3.3,4.87-4.87,2.3-2.54,5.19-4.39,7.59-6.81,2.49.66,11.25,11.49,12.07,11.68,5.16,1.19,10.42-18,11.29-21.8Z"/><path class="cls-1" d="M28.68,215.73c2.67,2.37,13.45,2.01,15.18,3.11.65.41-.09,4.94.58,6.42,1.55,3.41,36.19,13.2,41.86,13.43,1.1.77.46,7.32.19,7.59-1.61,1.69-41.81-1.16-46.53-2.14-4.01-.83-11.72-3.3-12.65-7.98-.4-2.03.17-19.99,1.36-20.44Z"/><path class="cls-1" d="M99.16,232.09c1.92-.2,13.32.26,13.43,2.14-1.12,2.53-10.07.9-10.51,2.73-.47,1.94,4.39,1.45,5.65,1.75,2.11.5,4.52,1.6,6.62,1.95,2.42.4,8.42-1.67,7.01,2.34l-12.26-.19c1.85,2.25,12.72,1.27,13.24,2.34,2.43,5-11.54,1.04-13.63,1.56,3.22,2.79,8.28,2.52,12.26,2.53.77,5.63-9.83,1.07-13.04,1.75,2.8,2.56,7.3,1.15,10.32,2.92-5.4,1.76-27.98-.27-29.4-6.81-.09-.4.27-7.78.39-8.18.54-1.85,7.73-6.58,9.93-6.81Z"/><path class="cls-1" d="M89.42,150.32c16.35-.04,8.82,18.83,2.73,26.48l-10.71-9.93c4.44-4.86,7.72-9.72,7.98-16.55Z"/><path class="cls-1" d="M65.67,149.93l.97.19c1.07,6.97,5.99,12.09,10.9,16.74l-10.32,9.93c-1.18,0-9.43-15.51-9.54-17.33-.19-3.15,5.74-7.78,7.98-9.54Z"/><path class="cls-1" d="M84.36,146.43c.48,0,1.89-.16,2.14.19.82,7.33-1.16,13.71-7.2,18.1-4.87-4.57-9.53-9.58-10.32-16.55,4.56-.04,11.17-1.76,15.38-1.75Z"/><path class="cls-1" d="M47.37,218.85c.34-.15,4.32-.03,4.48.19l-.19,7.2c-.35.28-4.65-1.57-4.87-2.14-.21-.54-.19-4.91.58-5.26Z"/><path class="cls-1" d="M133.42,78.68c4.12-.49,6.89,5.52,7.2,8.76.84,8.74-5.82,18.97-14.21,21.61l-.58-23.56c.39-1.67,5.93-6.62,7.59-6.81Z"/><path class="cls-1" d="M9.6,94.26c2.22-.23,9,3.32,9.93,5.26.43.89,4.9,17.82,5.06,19.08.07.54.48,1.93-.19,2.14-9.45-.48-21.1-10.9-19.66-20.83.3-2.09,2.59-5.41,4.87-5.65Z"/><path class="cls-1" d="M97.21,42.08c4.55,7.92,23.04,16.45,25.11,25.11,1.85,7.74,2.08,40.61,0,48.28-9.68,35.8-78.19,41.75-94.22,6.23-2.26-5.01-8.73-29.12-7.4-33.48.72-2.37,8.09-11.27,10.12-13.63,6.13-7.1,13.61-12.88,19.66-20.05.56,1.01-1.59,4.05-2.14,4.87-.88,1.31-9.73,9.93-6.81,11.1,1.13.45,20.98-5.98,23.36-7.01,6.74-2.91,13.59-8.04,19.08-12.85,2.6,5.53,9.34,9.99,15.57,8.96,2.7-1.97-4.17-13.65-2.34-17.52Z"/><path class="cls-2" d="M46.2,94.65c6.48-1.18,11.22,14.15,5.84,17.91-6.02,1.54-12.71-16.66-5.84-17.91Z"/><path class="cls-2" d="M97.99,88.03c9.81-2.08,5.55,25.35-1.75,16.55-2.86-3.44-3.44-15.44,1.75-16.55Z"/><path class="cls-2" d="M45.81,80.24c2.29-.22,4.78.23,6.62,1.56.37,1.12-6.35.85-7.79,1.17-1.64.37-7.93,3.95-8.37,2.53-.49-1.58,8.07-5.11,9.54-5.26Z"/><path class="cls-2" d="M94.09,74.01c.91-.13,12.37.51,10.32,2.92-.49.58-12.79-1.58-14.99.97-1.31-1.79,3.58-3.73,4.67-3.89Z"/><path class="cls-2" d="M74.24,102.82c2.05-.42,5.49,1.88,4.48,3.7-.19.34-5.64-2.55-7.2.58-.96-.55,1.53-4.04,2.73-4.28Z"/><path class="cls-2" d="M87.47,112.95c2.23-.02,1.44,6.22.97,7.98-.62,2.34-6.34,9.45-8.76,9.93-5.86,1.17-15.4-6.95-15.77-12.65-.31-4.72,4.21-.87,6.81-.58,3.39.37,8.1.03,11.29-1.17,1.19-.45,5.13-3.5,5.45-3.5Z"/><path class="cls-1" d="M86.31,116.84c.55,8.3-16.16,10.62-19.27,2.92.29-1.28,5.35.9,6.42.97,4.66.33,8.98-1.5,12.85-3.89Z"/><path class="cls-1" d="M81.24,125.79c.34-.02.83-.11.97.19-2.47,2.46-5.1,3.3-8.18,1.17,2.21.49,5.61-1.28,7.2-1.36Z"/><path class="cls-1" d="M203.11,153.05c.67-.06,4.64-.13,4.87.19-.98,4.24,3.89,21.79,7.98,22.78,2.53.61,10.29-9.45,12.85-11.29,3.07,2.05,5.91,4.46,8.37,7.2,1.3,1.45,1.66,4.71,4.09,4.09,3.28-.83,10.27-17.44,10.12-21.41,22.79,7.59,28.75,33.31,32.51,54.31-.8,2.41-24.92,5.6-28.42,4.28-1.74-11.94-3.2-24.17-1.56-36.21.2-1.48,3.39-8.39.19-7.59-3.68.92-3.5,24.12-3.31,27.84.11,2.04,1.78,17.57,2.34,18.3,1,1.31,3.77-.11,4.28,1.17.17.43-.21,8.91-.39,9.34-.49,1.18-21.6,7.32-24.33,7.98-1.98.48-12.56,2.97-13.63,2.73-.65-.15-5.77-5.46-8.18-6.23-1.61-.52-5.54-.3-6.62-.78-.48-.21-5.53-8.25-5.65-8.76-.84-3.79.31-18.39.78-22.97.29-2.81,3.51-15.71,3.11-17.13s-2.13-1.02-2.73.39c-1.64,3.87-1.46,14.22-2.73,18.69-.63,2.22-8.66,13.94-.39,7.4l-.58,7.98c-1.31.67-8.99-16.5-10.32-17.72-1.5-1.37-11.37-4.22-11.68-5.84,6.19-11.41,13.54-37.43,29.01-38.74Z"/><path class="cls-1" d="M280.2,213.01c2.4,17.75,8.8,26.28-12.46,30.76-5.58,1.18-45.42,4.57-47.31,2.14-.53-.68-.75-6.12.19-6.81.82-.6,16.95-3.81,19.86-4.67,3.2-.95,24.52-7.76,25.11-9.54.53-1.58-.84-8.64.19-9.15l14.41-2.73Z"/><path class="cls-1" d="M196.1,232.48c2.63-.82,13.29.1,15.96,1.56.37.2,5.15,4.15,5.26,4.48.15.45.89,8.89.78,9.34-.41,1.74-8.05,5.22-9.93,5.65-2.69.61-15.8,1.56-17.52.39-.21-.14-1.08-.85-.78-1.17,3.14.08,6.31-.09,9.15-1.36-2.62-1.47-12.63,2.65-11.49-2.53,3.75-.05,7.81.47,11.1-1.75-.07-1.65-11.94,2.18-12.85-.39-1.54-4.36,10.05-.37,12.07-3.89l-11.49.19c-1.09-4.82,3.95-2.09,6.62-2.34,3.99-.37,8.15-2.29,12.26-2.53,2.35-2.44-16.92-3.23-9.15-5.65Z"/><path class="cls-1" d="M237.77,142.54c4.8,1.53-5.47,17.61-8.96,18.69-5.51-4.81-8.14-10.71-7.98-18.1,3.02.53,15.06-1.18,16.94-.58Z"/><path class="cls-1" d="M218.3,148.77c1.77,5.47,4.44,10.32,8.76,14.21l-10.71,10.32c-2.78-3.35-8.13-19.26-5.06-22.19,1.09-1.04,5.74-.65,7.01-2.34Z"/><path class="cls-1" d="M240.88,147.21c.61-.5,7.79,5.04,7.98,6.03.78,4.1-5.01,16.28-7.98,19.66l-9.93-9.93c4.91-3.97,9.4-9.2,9.93-15.77Z"/><path class="cls-1" d="M259.96,216.12c.13-.1,2.73-.07,2.92.19-.39,3.33,2.22,9.52-3.11,8.18.18-1.21-.32-8.01.19-8.37Z"/><path class="cls-1" d="M191.04,234.42c1.16,0,2.23,3.83-.78,3.5-2.78-.3.44-3.5.78-3.5Z"/><path class="cls-1" d="M289.55,86.86c3.94-.41,6.52,2.82,6.81,6.42.75,9.1-8.31,17.82-16.94,18.88,2.64-6.79.27-24.29,10.12-25.31Z"/><path class="cls-1" d="M168.07,86.86c3.55-.64,7.68,2.29,9.93,4.87l2.14,20.05c-8.54-1.9-17.76-10.56-16.16-20.05.28-1.67,2.26-4.54,4.09-4.87Z"/><path class="cls-1" d="M237.77,50.65c.73,3.8.79,8.52-.19,12.26-.91,3.48-8.55,12.05-2.92,14.6,10.05,4.54,19.76-15.16,17.52-23.36,2.82,9.16,8.21,17.99,16.35,23.36,1.06.7,8.82,5.54,9.54,3.31-1.6-3.49-3.33-7.42-3.7-11.1.82-.28,6.69,14.26,6.81,15.77.37,4.58-3.65,25.72-5.45,30.37-12.68,32.68-78.03,34.01-91.11,1.56-3.07-7.62-5.67-29.16-3.89-36.99,1.13-5.01,20.74-16.98,23.17-23.56,1.36,5.63-16.84,19.14-16.55,20.44.47,2.1,7.46,1.43,9.15.58v2.34c5.04-1.92,9.44-2.28,14.8-1.56-1.45-3.05-5.46-1.81-7.98-2.53,13.71-4.83,30.32-9.5,34.46-25.5Z"/><path class="cls-2" d="M202.72,88.42c8.49-1.87,9.04,20.91,1.17,17.52-4.05-1.74-6.2-16.41-1.17-17.52Z"/><path class="cls-2" d="M254.12,89.58c8.79-1.91,4.13,18.47-1.95,17.52-4.37-.68-4.01-16.23,1.95-17.52Z"/><path class="cls-2" d="M251,75.57c1.96-.36,15.27,1.79,13.04,4.48-.6.73-13.46-4.12-15.77-1.75l-.39-.78c.2-.64,2.49-1.83,3.11-1.95Z"/><path class="cls-2" d="M227.64,99.71c2.85-.8,5.1,1.75,5.26,4.48-2.46-.95-4.37-2.72-7.2-1.36-.58-.81,1.65-3.03,1.95-3.11Z"/><path class="cls-2" d="M217.52,111c.7-.19,6.64,3.24,8.57,3.5,5.76.8,9.53-1.27,14.8-2.73,2.88,6.2-7.32,16.85-13.24,15.96-1.81-.27-7.79-5.61-8.76-7.2-.83-1.38-3.37-9-1.36-9.54Z"/><path class="cls-1" d="M219.86,114.5c5.64,2.93,12.61,3.42,18.3.39,1.8,5.05-7.54,6.77-11.29,6.23-2.08-.3-8.93-3.71-7.01-6.62Z"/><path class="cls-1" d="M224.92,123.07l7.98.19c-2.17,2.47-5.91,2.35-7.98-.19Z"/></g></svg>