<svg width="102" height="81" viewBox="0 0 102 81" fill="none" xmlns="http://www.w3.org/2000/svg">
<path d="M58.6203 38.3284C58.6615 38.3763 58.7092 38.4199 58.7612 38.4569L74.4932 49.8366L74.5019 49.841C74.556 49.8758 74.6145 49.9063 74.6752 49.9281C74.6969 49.9368 74.7142 49.9499 74.7359 49.9586C74.8204 49.9848 74.9092 50 74.9959 50H86.3211C86.6157 50 86.8887 49.8497 87.0491 49.5992L92.2187 41.513L100.853 28.5886C100.976 28.4034 101.026 28.1769 100.987 27.9569L99.0673 16.769C99.0348 16.5708 98.933 16.39 98.7814 16.2571L81.5151 1.2113C81.357 1.07624 81.1555 1 80.9475 1H70.2008C70.1705 1.00218 70.1423 1.00871 70.1141 1.01525C70.0925 1.01525 70.073 1.01089 70.0513 1.01525C70.0296 1.01961 70.0188 1.03268 69.9993 1.03703V1.03485C69.93 1.05228 69.8628 1.07842 69.8 1.11327C69.7696 1.12852 69.7371 1.14595 69.7068 1.16338C69.696 1.17209 69.683 1.17427 69.6721 1.18298L49.3358 16.9978C49.3077 17.0196 49.2947 17.0544 49.2708 17.0784C49.2253 17.1154 49.1842 17.1568 49.1473 17.2026C49.1343 17.22 49.1343 17.2418 49.1235 17.2614C49.0997 17.3049 49.0823 17.3507 49.0672 17.3964C49.039 17.4683 49.0238 17.5424 49.0173 17.6186C49.0108 17.6404 49.0043 17.6644 49 17.6883V27.1402C49 27.3537 49.078 27.5606 49.2188 27.7197L58.6203 38.3284ZM50.7335 26.807V19.3221L65.5143 29.2859L69.2215 36.1825L73.18 46.7369L59.8508 37.0976L50.7335 26.807ZM71.7937 15.8149L65.8482 27.4171L51.3487 17.6362L69.6005 3.44201L71.7937 15.8149ZM90.7738 40.5613L85.8512 48.2621H75.6009L70.8234 35.5122C70.8104 35.4752 70.7931 35.4403 70.7757 35.4054L67.1553 28.6722L73.1202 17.0332L84.1591 21.0915L92.5357 37.9151L90.7738 40.5613ZM97.4171 17.3747L99.2241 27.9118L93.6469 36.2528L85.5565 20.0019C85.4569 19.8036 85.2857 19.6511 85.0777 19.5749L73.4641 15.3053L71.2389 2.7428H80.625L97.4171 17.3747Z" fill="black" stroke="black" stroke-width="0.5"/>
<path d="M61.9775 67.1321C60.5021 62.3278 59.2836 57.0423 58.6885 53.9755C58.6879 53.9727 58.6865 53.9693 58.6865 53.9659C58.6858 53.9639 58.6858 53.9625 58.6851 53.9605C58.6851 53.9598 58.6845 53.9591 58.6838 53.9584C57.428 47.5864 44.7348 42 31.4994 42C16.1536 42 6.40581 45.4467 4.74877 51.458C4.74877 51.4586 4.74809 51.4593 4.74741 51.46C4.74673 51.462 4.74673 51.4641 4.74605 51.4668C4.74605 51.4682 4.74538 51.4702 4.7447 51.4723C4.01885 54.1286 3.43533 55.9551 2.92161 57.5665C2.10901 60.1119 1.5221 61.9514 1.00635 65.1898C0.986693 65.313 1.01312 65.439 1.07954 65.5445L1.90502 66.8454C1.90569 66.8461 1.90637 66.8468 1.90705 66.8475C1.94365 66.904 1.99109 66.953 2.04734 66.9925C2.06157 67.0027 2.07987 67.0047 2.09546 67.0129C2.13815 67.0361 2.18017 67.0599 2.22965 67.0708C2.231 67.0715 2.23304 67.0701 2.23507 67.0708C2.23642 67.0715 2.23778 67.0728 2.23981 67.0728C2.27099 67.079 2.30216 67.0715 2.33402 67.0715C2.36926 67.0708 2.4045 67.0762 2.43771 67.0694C2.46414 67.0633 2.48651 67.049 2.51158 67.0388C2.54954 67.0245 2.58817 67.0122 2.62205 66.9891C2.62544 66.9864 2.63019 66.9864 2.63425 66.9836C2.99684 66.7175 3.34248 66.5827 3.66237 66.5827C4.81315 66.5827 5.66709 68.3894 5.89142 71.2984C5.89345 71.3229 5.90497 71.3447 5.91039 71.3692C5.91717 71.3998 5.92259 71.4304 5.93479 71.4597C5.94767 71.4897 5.96732 71.5155 5.98562 71.5428C6.00324 71.5693 6.01951 71.5959 6.04187 71.6183C6.04662 71.6231 6.04865 71.6306 6.05407 71.6347L7.21231 72.7001C7.21909 72.7062 7.22722 72.7096 7.234 72.7144C7.24687 72.726 7.26111 72.7334 7.27534 72.743C7.31465 72.7695 7.35599 72.7899 7.40072 72.8042C7.41089 72.8076 7.41834 72.8158 7.42918 72.8185C7.43393 72.8199 7.43867 72.8179 7.44342 72.8192C7.50102 72.8328 7.55999 72.8349 7.61963 72.8281C7.63182 72.826 7.64267 72.8226 7.65419 72.8199C7.6813 72.8145 7.70773 72.8117 7.73348 72.8029C10.4986 71.7708 12.3685 72.8458 13.6412 76.2156C13.644 76.2238 13.6514 76.2292 13.6555 76.2367C13.6738 76.2796 13.6995 76.3163 13.7287 76.3524C13.7416 76.3674 13.7497 76.3851 13.7639 76.398C13.8107 76.4436 13.8649 76.4831 13.9293 76.5083L15.6195 77.1823C15.6941 77.2116 15.7727 77.2204 15.85 77.2136C15.8764 77.2116 15.8988 77.1986 15.9245 77.1925C15.9672 77.1816 16.0113 77.1775 16.0513 77.1557C16.0587 77.1516 16.0634 77.1428 16.0702 77.1387C16.0763 77.1346 16.0845 77.1353 16.0912 77.1312C17.3118 76.3041 18.384 75.9018 19.3701 75.9018C20.8957 75.9018 22.2511 76.9073 23.513 78.9741C23.5164 78.9802 23.5232 78.9829 23.5273 78.9884C23.532 78.9952 23.5327 79.004 23.5381 79.0108C23.5639 79.0456 23.5991 79.0687 23.6323 79.0953C23.6499 79.1095 23.6628 79.1279 23.6825 79.1395C23.7442 79.1783 23.8126 79.2049 23.8858 79.213L25.8173 79.4486C25.8966 79.4595 25.9739 79.4465 26.0464 79.4207C26.0681 79.4125 26.0843 79.3975 26.1047 79.3873C26.1433 79.3676 26.184 79.3519 26.2172 79.3226C26.2253 79.3151 26.2287 79.3043 26.2368 79.2954C26.2436 79.2886 26.2531 79.2872 26.2592 79.2804C27.4039 77.9822 28.4957 77.3777 29.6946 77.3777C31.0535 77.3777 32.6129 78.1708 34.4624 79.8033C34.4767 79.8155 34.4936 79.821 34.5085 79.8318C34.5289 79.8461 34.5492 79.8598 34.5722 79.8713C34.6088 79.889 34.6461 79.9013 34.6861 79.9108C34.7017 79.9142 34.7145 79.9244 34.7308 79.9258C34.745 79.9278 34.7572 79.9278 34.7708 79.9285C34.7728 79.9285 34.7749 79.9299 34.7769 79.9299L36.4156 79.9993C36.4245 80 36.4319 80 36.4407 80C36.4407 80 36.4414 80 36.4421 80C36.4631 80 36.4848 79.9986 36.5065 79.9959C36.5254 79.9932 36.541 79.9823 36.5586 79.9782C36.5803 79.9728 36.602 79.9741 36.6237 79.966C36.621 79.966 36.6217 79.966 36.6217 79.966C36.6257 79.9646 36.6298 79.9626 36.6339 79.9612L36.7477 79.9135C36.9124 79.8312 37.0364 79.6617 37.0568 79.4813C38.2116 77.8161 39.5298 77.0053 41.0784 77.0053C42.234 77.0053 43.5379 77.4587 45.0641 78.3907C45.0967 78.4104 45.1326 78.4199 45.1672 78.4329C45.1821 78.4383 45.1963 78.4472 45.2112 78.4506C45.2715 78.4649 45.3332 78.4703 45.3949 78.4608L46.8913 78.2613C46.9665 78.2511 47.037 78.2232 47.0994 78.183C47.1204 78.1694 47.1339 78.1476 47.1522 78.1313C47.1868 78.1013 47.2234 78.0755 47.2491 78.0367C47.2519 78.0319 47.2519 78.0264 47.2546 78.0224C47.2573 78.0183 47.262 78.0162 47.2641 78.0121C49.1671 74.7397 51.3325 73.8234 53.7574 75.2972C53.8055 75.3265 53.8584 75.3449 53.9126 75.3565C53.9207 75.3585 53.9288 75.3578 53.937 75.3592C53.9892 75.3687 54.0407 75.3687 54.0928 75.3612C54.1023 75.3599 54.1105 75.3633 54.12 75.3612C54.1281 75.3599 54.1342 75.3537 54.1423 75.3517C54.1932 75.3388 54.242 75.319 54.288 75.2904C54.2948 75.2863 54.3023 75.2843 54.309 75.2795C54.3111 75.2782 54.3138 75.2775 54.3158 75.2761L55.6062 74.353C55.6096 74.3503 55.611 74.3462 55.6144 74.3441C55.6543 74.3142 55.6842 74.2754 55.7133 74.2366C55.7241 74.2216 55.7397 74.2107 55.7492 74.1944C55.7838 74.1358 55.8061 74.0712 55.8156 74.0031C55.8156 74.0017 55.8163 74.001 55.8163 74.0004C56.3083 70.0975 57.6062 68.5481 60.1443 68.8564C60.1456 68.8564 60.147 68.8558 60.1484 68.8558C60.1897 68.8612 60.2317 68.8517 60.2744 68.8456C60.2995 68.8421 60.3259 68.8462 60.351 68.8381C60.3517 68.8381 60.3524 68.8381 60.353 68.8381C60.4011 68.8238 60.4411 68.7952 60.4811 68.7686C60.496 68.7577 60.515 68.7543 60.5286 68.7428L60.5299 68.7414C60.5299 68.7414 60.5306 68.7414 60.5306 68.7407L61.8162 67.6739C61.9742 67.5439 62.0379 67.3295 61.9775 67.1321ZM31.4994 43.0205C45.2532 43.0205 56.6709 48.9071 57.6909 54.1702C57.6929 54.1797 57.695 54.1906 57.697 54.2001C57.9959 55.546 57.7275 56.7435 56.8742 57.8606C54.1674 61.404 45.4823 63.7976 33.6607 64.2646C20.7059 64.2646 10.1008 61.2441 6.64234 56.5692C5.52544 55.0592 5.21572 53.439 5.72131 51.7534C5.72198 51.7493 5.72334 51.7452 5.7247 51.7412C7.21705 46.2807 16.8523 43.0205 31.4994 43.0205ZM3.66033 65.5615C3.47599 65.5615 3.29029 65.5867 3.10392 65.6337C3.51733 64.2796 4.30485 62.3905 5.396 61.8656C5.81416 61.6648 6.25129 61.6879 6.73383 61.9357C8.44645 62.8139 7.54033 66.6644 6.63285 69.2615C5.94496 65.97 4.38008 65.5615 3.66033 65.5615ZM8.31362 71.5632C8.87139 69.8885 10.0439 67.224 11.5925 66.5772C12.1807 66.3335 12.7792 66.3968 13.4251 66.7767C14.7656 67.5637 14.5162 71.4182 13.9449 74.4238C12.6199 71.9689 10.7277 71.0009 8.31362 71.5632ZM16.5812 75.6526C17.0272 73.9963 18.0262 71.0193 19.6737 69.9185C20.2132 69.5583 20.7649 69.444 21.3599 69.5685C23.8384 70.0886 23.9048 74.5777 23.6181 77.3368C21.6418 74.7655 19.3396 74.2066 16.5812 75.6526ZM26.4503 77.667C26.5987 76.0154 27.0813 73.1712 28.6407 71.6987C29.3788 71.0016 30.2598 70.7013 31.3347 70.7755C31.6926 70.8007 32.049 71.0288 32.394 71.4543C33.6207 72.9629 34.274 76.347 34.3255 78.3648C31.2276 75.9154 28.7566 75.703 26.4503 77.667ZM36.8447 78.1081C36.7382 75.626 36.9287 70.4474 40.3058 69.8722C42.0781 69.5665 43.7453 73.6852 44.5728 76.9515C43.2993 76.3055 42.1472 75.9841 41.0784 75.9841C39.4783 75.9848 38.0605 76.703 36.8447 78.1081ZM47.0451 76.4688C46.6439 74.5538 46.0563 70.7279 47.2573 68.8136C47.6178 68.2369 48.1092 67.9006 48.7584 67.7842C51.0498 67.3799 52.6215 71.4325 53.2803 73.9289C52.7055 73.7063 52.1362 73.5878 51.5764 73.5878C49.916 73.5885 48.3952 74.5586 47.0451 76.4688ZM55.2572 71.5782C54.4182 67.7808 54.1782 64.5669 54.7848 64.2204C55.4334 63.8507 56.0366 63.784 56.6255 64.0189C58.0521 64.5894 59.0389 66.7025 59.4699 67.8101C56.9149 67.8598 55.7831 69.8136 55.2572 71.5782ZM60.4405 67.4922C59.966 66.26 58.8193 63.7976 57.003 63.0712C56.1199 62.7172 55.2036 62.8064 54.2819 63.3333C52.4751 64.3668 54.0556 71.1609 54.7286 73.7274L54.345 74.0017C53.8163 71.8818 52.0563 66.1511 48.5802 66.7801C47.6463 66.9469 46.9116 67.4486 46.3966 68.2696C44.8303 70.7687 45.7947 75.6546 46.1905 77.3252L45.9066 77.3634L45.7229 77.3879C45.2526 75.3326 43.3935 68.3098 40.135 68.866C35.4628 69.6611 35.6952 76.8058 35.8735 78.9557L35.3381 78.9332C35.4085 76.8542 34.741 72.728 33.1815 70.8082C32.6515 70.1567 32.0545 69.8027 31.4059 69.7571C30.0504 69.6625 28.8861 70.0655 27.9427 70.9566C25.8207 72.9608 25.4453 76.8862 25.3802 78.3696L25.1416 78.3403L24.5269 78.2654C24.8062 76.2632 25.4703 69.3888 21.5673 68.5698C20.7039 68.3888 19.877 68.5569 19.1098 69.0695C16.9228 70.5311 15.7985 74.4912 15.4372 76.0127L14.7121 75.7234C15.1438 73.8363 16.4179 67.3513 13.9388 65.8951C13.0123 65.3512 12.0913 65.2633 11.2021 65.6344C9.09233 66.516 7.7999 69.8483 7.30041 71.3978L7.00764 71.1289C7.75517 69.3786 10.3692 62.6526 7.19672 61.0262C6.42343 60.6293 5.67048 60.6021 4.95818 60.9445C3.46786 61.6607 2.56851 63.9168 2.14019 65.3151L2.04056 65.1592C2.53598 62.1148 3.10663 60.3291 3.88941 57.8776C4.15508 57.0464 4.43904 56.156 4.7508 55.1266C4.97648 55.8285 5.33432 56.5134 5.82636 57.1792C9.5254 62.1794 20.1901 65.2858 33.6776 65.2858C33.679 65.2858 33.6797 65.2858 33.6803 65.2858C39.5102 65.0564 53.5175 63.9331 57.6801 58.4828C57.9593 58.1173 58.1836 57.7394 58.3612 57.3514C59.003 60.2134 59.8908 63.7581 60.9061 67.1055L60.4405 67.4922Z" fill="black" stroke="black" stroke-width="0.7"/>
</svg>
